:FULLY-SPECIFIED
:FORCE-ALL-JOINTS-BE-3DOF
:DEGREES
34
root 5.98469 16.8979 -28.0779 10.0263 -1.81288 -2.27786
lfemur -20.215 1.73774 -19.7743
ltibia 33.8943 -0 0
lfoot -36.0145 4.07773 -0.00327197
ltoes 36.3797 -0 0
rfemur -16.8387 7.19094 19.5738
rtibia 30.555 -0 0
rfoot -27.541 -19.0209 -0.00018137
rtoes 14.7154 -0 0
lowerback -5.45671 2.55251 -0.961866
upperback -1.93264 3.44013 0.841168
thorax 0.955796 1.72504 1.6105
lowerneck -9.56314 -1.66625 2.64413
upperneck -2.58062 -2.48505 0.754417
head 0.763309 -1.24481 -0.29192
lclavicle 2.01735e-14 2.6339e-15 0
lhumerus -41.5408 -12.7752 97.0771
lradius 38.7821 -0 0
lwrist 5.64237 0 0
lhand -11.118 6.13646 0.000465078
lfingers 7.12502 -0 0
lthumb 14.9068 35.5801 0.000445311
rclavicle 2.01735e-14 2.6339e-15 0
rhumerus -40.6843 -5.00254 -88.6836
rradius 39.2266 -0 0
rwrist 10.9547 0 0
rhand -26.7974 -19.9941 -0.00036014
rfingers 7.12502 -0 0
rthumb -0.224356 -49.9737 -0.000347767
35
root 5.97815 16.8965 -28.0798 10.0676 -1.72291 -2.23655
lfemur -20.3307 1.82128 -19.7953
ltibia 33.9931 -0 0
lfoot -35.8879 3.88025 -0.00610778
ltoes 36.3553 -0 0
rfemur -16.872 6.93826 19.5516
rtibia 30.5473 -0 0
rfoot -27.554 -18.9143 -0.000338558
rtoes 14.0771 -0 0
lowerback -5.48202 2.51298 -0.863368
upperback -1.91722 3.38368 0.752705
thorax 0.996694 1.69577 1.46294
lowerneck -9.56668 -1.66071 2.6641
upperneck -2.64052 -2.47932 0.819261
head 0.74545 -1.24179 -0.274548
lclavicle 2.01735e-14 2.6339e-15 0
lhumerus -41.5293 -12.8431 96.99
lradius 38.9726 -0 0
lwrist 5.74729 0 0
lhand -11.1356 5.93488 0.000868158
lfingers 7.12502 -0 0
lthumb 14.8898 35.3797 0.000831259
rclavicle 2.01735e-14 2.6339e-15 0
rhumerus -40.6479 -4.94434 -88.8411
rradius 39.2581 -0 0
rwrist 10.8568 0 0
rhand -26.7584 -20.0646 -0.000672263
rfingers 7.12502 -0 0
rthumb -0.186669 -50.0442 -0.000649166
36
root 5.9716 16.8952 -28.0817 10.1091 -1.63297 -2.19517
lfemur -20.4465 1.90477 -19.8165
ltibia 34.092 -0 0
lfoot -35.7614 3.68276 -0.0085074
ltoes 36.3309 -0 0
rfemur -16.9053 6.68557 19.5296
rtibia 30.5397 -0 0
rfoot -27.567 -18.8078 -0.000471564
rtoes 13.4388 -0 0
lowerback -5.5074 2.4735 -0.764856
upperback -1.90171 3.32726 0.664232
thorax 1.03767 1.66661 1.31535
lowerneck -9.57021 -1.65517 2.68408
upperneck -2.70041 -2.47352 0.884098
head 0.727592 -1.23877 -0.257178
lclavicle 2.01735e-14 2.6339e-15 0
lhumerus -41.5178 -12.9109 96.9029
lradius 39.1632 -0 0
lwrist 5.85221 0 0
lhand -11.1533 5.73329 0.00120923
lfingers 7.12502 -0 0
lthumb 14.8729 35.1794 0.00115784
rclavicle 2.01735e-14 2.6339e-15 0
rhumerus -40.6116 -4.88605 -88.9985
rradius 39.2897 -0 0
rwrist 10.7588 0 0
rhand -26.7193 -20.1351 -0.000936369
rfingers 7.12502 -0 0
rthumb -0.148982 -50.1147 -0.000904198
37
root 5.96505 16.8938 -28.0837 10.1506 -1.54306 -2.15374
lfemur -20.5623 1.98821 -19.8378
ltibia 34.1908 -0 0
lfoot -35.6348 3.48526 -0.0104708
ltoes 36.3065 -0 0
rfemur -16.9384 6.43287 19.5078
rtibia 30.5321 -0 0
rfoot -27.58 -18.7012 -0.000580389
rtoes 12.8005 -0 0
lowerback -5.53284 2.43406 -0.666329
upperback -1.88611 3.27086 0.575749
thorax 1.07872 1.63756 1.16775
lowerneck -9.57373 -1.64963 2.70405
upperneck -2.76029 -2.46766 0.948928
head 0.709735 -1.23574 -0.239809
lclavicle 2.01735e-14 2.6339e-15 0
lhumerus -41.5061 -12.9788 96.8157
lradius 39.3538 -0 0
lwrist 5.95713 0 0
lhand -11.1709 5.53171 0.0014883
lfingers 7.12502 -0 0
lthumb 14.8559 34.9791 0.00142504
rclavicle 2.01735e-14 2.6339e-15 0
rhumerus -40.5755 -4.82766 -89.1558
rradius 39.3213 -0 0
rwrist 10.6608 0 0
rhand -26.6803 -20.2056 -0.00115246
rfingers 7.12502 -0 0
rthumb -0.111295 -50.1852 -0.00111286
38
root 5.95851 16.8925 -28.0856 10.1922 -1.45317 -2.11224
lfemur -20.6781 2.07161 -19.8594
ltibia 34.2896 -0 0
lfoot -35.5082 3.28776 -0.0119979
ltoes 36.2821 -0 0
rfemur -16.9714 6.18016 19.4861
rtibia 30.5244 -0 0
rfoot -27.593 -18.5946 -0.00066503
rtoes 12.1621 -0 0
lowerback -5.55835 2.39467 -0.567787
upperback -1.87043 3.21449 0.487256
thorax 1.11984 1.60861 1.02013
lowerneck -9.57726 -1.64409 2.72403
upperneck -2.82016 -2.46173 1.01375
head 0.691879 -1.2327 -0.22244
lclavicle 2.01735e-14 2.6339e-15 0
lhumerus -41.4942 -13.0466 96.7285
lradius 39.5443 -0 0
lwrist 6.06205 0 0
lhand -11.1885 5.33013 0.00170536
lfingers 7.12502 -0 0
lthumb 14.8389 34.7787 0.00163287
rclavicle 2.01735e-14 2.6339e-15 0
rhumerus -40.5395 -4.76917 -89.3132
rradius 39.3529 -0 0
rwrist 10.5629 0 0
rhand -26.6413 -20.2761 -0.00132052
rfingers 7.12502 -0 0
rthumb -0.0736068 -50.2557 -0.00127515
39
root 5.95196 16.8911 -28.0875 10.2338 -1.36332 -2.07067
lfemur -20.794 2.15497 -19.881
ltibia 34.3884 -0 0
lfoot -35.3817 3.09026 -0.0130887
ltoes 36.2577 -0 0
rfemur -17.0043 5.92743 19.4646
rtibia 30.5168 -0 0
rfoot -27.606 -18.488 -0.000725488
rtoes 11.5238 -0 0
lowerback -5.58393 2.35531 -0.46923
upperback -1.85466 3.15814 0.398752
thorax 1.16103 1.57976 0.872491
lowerneck -9.58078 -1.63854 2.744
upperneck -2.88003 -2.45573 1.07857
head 0.674024 -1.22966 -0.205073
lclavicle 2.01735e-14 2.6339e-15 0
lhumerus -41.4823 -13.1144 96.6412
lradius 39.7349 -0 0
lwrist 6.16697 0 0
lhand -11.2061 5.12855 0.0018604
lfingers 7.12502 -0 0
lthumb 14.8219 34.5784 0.00178133
rclavicle 2.01735e-14 2.6339e-15 0
rhumerus -40.5037 -4.71058 -89.4704
rradius 39.3844 -0 0
rwrist 10.4649 0 0
rhand -26.6023 -20.3466 -0.00144057
rfingers 7.12502 -0 0
rthumb -0.0359188 -50.3262 -0.00139108
40
root 5.94541 16.8898 -28.0894 10.2755 -1.2735 -2.02904
lfemur -20.9099 2.23829 -19.9029
ltibia 34.4872 -0 0
lfoot -35.2551 2.89276 -0.0137432
ltoes 36.2333 -0 0
rfemur -17.0371 5.67469 19.4432
rtibia 30.5091 -0 0
rfoot -27.619 -18.3814 -0.000761763
rtoes 10.8855 -0 0
lowerback -5.60957 2.31601 -0.370659
upperback -1.83881 3.10181 0.310237
thorax 1.2023 1.55102 0.724833
lowerneck -9.58431 -1.633 2.76397
upperneck -2.93989 -2.44966 1.14338
head 0.65617 -1.22661 -0.187706
lclavicle 2.01735e-14 2.6339e-15 0
lhumerus -41.4703 -13.1822 96.5539
lradius 39.9255 -0 0
lwrist 6.27189 0 0
lhand -11.2238 4.92697 0.00195343
lfingers 7.12502 -0 0
lthumb 14.8049 34.3781 0.0018704
rclavicle 2.01735e-14 2.6339e-15 0
rhumerus -40.4681 -4.65189 -89.6276
rradius 39.416 -0 0
rwrist 10.367 0 0
rhand -26.5632 -20.4171 -0.0015126
rfingers 7.12502 -0 0
rthumb 0.00176934 -50.3967 -0.00146063
41
root 5.93887 16.8884 -28.0913 10.3173 -1.18371 -1.98735
lfemur -21.0259 2.32156 -19.9249
ltibia 34.5861 -0 0
lfoot -35.1285 2.69525 -0.0139613
ltoes 36.2089 -0 0
rfemur -17.0697 5.42194 19.422
rtibia 30.5015 -0 0
rfoot -27.632 -18.2749 -0.000773855
rtoes 10.2472 -0 0
lowerback -5.63528 2.27674 -0.272073
upperback -1.82287 3.04551 0.221711
thorax 1.24365 1.52239 0.577155
lowerneck -9.58783 -1.62745 2.78395
upperneck -2.99975 -2.44352 1.20818
head 0.638316 -1.22356 -0.170341
lclavicle 2.01735e-14 2.6339e-15 0
lhumerus -41.4582 -13.2499 96.4666
lradius 40.1161 -0 0
lwrist 6.37681 0 0
lhand -11.2414 4.72539 0.00198443
lfingers 7.12502 -0 0
lthumb 14.788 34.1778 0.00190009
rclavicle 2.01735e-14 2.6339e-15 0
rhumerus -40.4327 -4.59311 -89.7848
rradius 39.4476 -0 0
rwrist 10.269 0 0
rhand -26.5242 -20.4876 -0.00153661
rfingers 7.12502 -0 0
rthumb 0.0394575 -50.4672 -0.00148382
42
root 5.93232 16.8871 -28.0932 10.3591 -1.09395 -1.94559
lfemur -21.1418 2.40479 -19.9471
ltibia 34.6849 -0 0
lfoot -35.0019 2.49774 -0.0137432
ltoes 36.1844 -0 0
rfemur -17.1023 5.16918 19.4009
rtibia 30.4939 -0 0
rfoot -27.645 -18.1683 -0.000761763
rtoes 9.60889 -0 0
lowerback -5.66106 2.23752 -0.173472
upperback -1.80684 2.98923 0.133174
thorax 1.28506 1.49387 0.42946
lowerneck -9.59135 -1.6219 2.80392
upperneck -3.05959 -2.43732 1.27298
head 0.620464 -1.2205 -0.152976
lclavicle 2.01735e-14 2.6339e-15 0
lhumerus -41.4459 -13.3177 96.3792
lradius 40.3066 -0 0
lwrist 6.48174 0 0
lhand -11.259 4.5238 0.00195343
lfingers 7.12502 -0 0
lthumb 14.771 33.9774 0.0018704
rclavicle 2.01735e-14 2.6339e-15 0
rhumerus -40.3974 -4.53423 -89.9419
rradius 39.4792 -0 0
rwrist 10.171 0 0
rhand -26.4852 -20.5581 -0.0015126
rfingers 7.12502 -0 0
rthumb 0.0771457 -50.5376 -0.00146063
43
root 5.92577 16.8858 -28.0951 10.401 -1.00422 -1.90377
lfemur -21.2579 2.48797 -19.9695
ltibia 34.7837 -0 0
lfoot -34.8753 2.30024 -0.0130887
ltoes 36.16 -0 0
rfemur -17.1348 4.91641 19.38
rtibia 30.4862 -0 0
rfoot -27.658 -18.0617 -0.000725488
rtoes 8.97058 -0 0
lowerback -5.68691 2.19835 -0.0748553
upperback -1.79072 2.93298 0.0446253
thorax 1.32655 1.46545 0.281745
lowerneck -9.59486 -1.61635 2.82389
upperneck -3.11943 -2.43105 1.33777
head 0.602612 -1.21744 -0.135613
lclavicle 2.01735e-14 2.6339e-15 0
lhumerus -41.4336 -13.3854 96.2918
lradius 40.4972 -0 0
lwrist 6.58666 0 0
lhand -11.2767 4.32222 0.0018604
lfingers 7.12502 -0 0
lthumb 14.754 33.7771 0.00178133
rclavicle 2.01735e-14 2.6339e-15 0
rhumerus -40.3623 -4.47525 -90.099
rradius 39.5108 -0 0
rwrist 10.0731 0 0
rhand -26.4461 -20.6286 -0.00144057
rfingers 7.12502 -0 0
rthumb 0.114834 -50.6081 -0.00139108
44
root 5.91922 16.8844 -28.097 10.4429 -0.914524 -1.86188
lfemur -21.3739 2.5711 -19.992
ltibia 34.8825 -0 0
lfoot -34.7488 2.10274 -0.0119979
ltoes 36.1356 -0 0
rfemur -17.1671 4.66362 19.3593
rtibia 30.4786 -0 0
rfoot -27.671 -17.9551 -0.00066503
rtoes 8.33227 -0 0
lowerback -5.71282 2.15922 0.0237761
upperback -1.77452 2.87676 -0.0439344
thorax 1.36811 1.43714 0.134012
lowerneck -9.59838 -1.6108 2.84387
upperneck -3.17926 -2.42471 1.40256
head 0.584762 -1.21437 -0.11825
lclavicle 2.01735e-14 2.6339e-15 0
lhumerus -41.4211 -13.4531 96.2044
lradius 40.6878 -0 0
lwrist 6.69158 0 0
lhand -11.2943 4.12064 0.00170536
lfingers 7.12502 -0 0
lthumb 14.737 33.5768 0.00163287
rclavicle 2.01735e-14 2.6339e-15 0
rhumerus -40.3273 -4.41618 -90.256
rradius 39.5423 -0 0
rwrist 9.97511 0 0
rhand -26.4071 -20.6991 -0.00132052
rfingers 7.12502 -0 0
rthumb 0.152522 -50.6786 -0.00127515
45
root 5.91268 16.8831 -28.099 10.485 -0.824856 -1.81993
lfemur -21.49 2.65419 -20.0147
ltibia 34.9813 -0 0
lfoot -34.6222 1.90524 -0.0104708
ltoes 36.1112 -0 0
rfemur -17.1994 4.41082 19.3386
rtibia 30.471 -0 0
rfoot -27.684 -17.8485 -0.000580389
rtoes 7.69396 -0 0
lowerback -5.7388 2.12013 0.122423
upperback -1.75824 2.82055 -0.132506
thorax 1.40975 1.40894 -0.0137403
lowerneck -9.60189 -1.60525 2.86384
upperneck -3.23909 -2.41831 1.46733
head 0.566912 -1.21129 -0.100889
lclavicle 2.01735e-14 2.6339e-15 0
lhumerus -41.4085 -13.5208 96.1169
lradius 40.8783 -0 0
lwrist 6.7965 0 0
lhand -11.3119 3.91906 0.0014883
lfingers 7.12502 -0 0
lthumb 14.72 33.3764 0.00142504
rclavicle 2.01735e-14 2.6339e-15 0
rhumerus -40.2925 -4.35701 -90.4129
rradius 39.5739 -0 0
rwrist 9.87714 0 0
rhand -26.3681 -20.7696 -0.00115246
rfingers 7.12502 -0 0
rthumb 0.19021 -50.7491 -0.00111286
46
root 5.90613 16.8817 -28.1009 10.5271 -0.735219 -1.77792
lfemur -21.6062 2.73724 -20.0376
ltibia 35.0801 -0 0
lfoot -34.4956 1.70774 -0.0085074
ltoes 36.0868 -0 0
rfemur -17.2315 4.15801 19.3182
rtibia 30.4633 -0 0
rfoot -27.697 -17.7419 -0.000471564
rtoes 7.05565 -0 0
lowerback -5.76484 2.08109 0.221084
upperback -1.74186 2.76438 -0.221089
thorax 1.45145 1.38084 -0.161511
lowerneck -9.6054 -1.5997 2.88381
upperneck -3.29891 -2.41183 1.5321
head 0.549064 -1.20821 -0.0835282
lclavicle 2.01735e-14 2.6339e-15 0
lhumerus -41.3958 -13.5885 96.0293
lradius 41.0689 -0 0
lwrist 6.90142 0 0
lhand -11.3295 3.71748 0.00120923
lfingers 7.12502 -0 0
lthumb 14.703 33.1761 0.00115784
rclavicle 2.01735e-14 2.6339e-15 0
rhumerus -40.2579 -4.29775 -90.5698
rradius 39.6055 -0 0
rwrist 9.77918 0 0
rhand -26.3291 -20.8401 -0.000936369
rfingers 7.12502 -0 0
rthumb 0.227897 -50.8196 -0.000904198
